<?xml version="1.0" encoding="UTF-8"?>
<svg id="Layer_2" data-name="Layer 2" xmlns="http://www.w3.org/2000/svg" xmlns:xlink="http://www.w3.org/1999/xlink" viewBox="0 0 534.03 251.29">
  <defs>
    <style>
      .cls-1 {
        fill: none;
      }

      .cls-2 {
        fill: url(#linear-gradient);
      }

      .cls-3 {
        fill: #006eff;
      }

      .cls-4 {
        fill: #001b68;
      }

      .cls-5 {
        fill: url(#Orange_Yellow);
      }

      .cls-6 {
        fill: url(#Orange_Yellow-4);
      }

      .cls-7 {
        fill: url(#Orange_Yellow-2);
      }

      .cls-8 {
        fill: url(#Orange_Yellow-3);
      }

      .cls-9 {
        fill: url(#Orange_Yellow-5);
      }
    </style>
    <linearGradient id="Orange_Yellow" data-name="Orange, Yellow" x1="159.61" y1="125.95" x2="231.04" y2="129.69" gradientUnits="userSpaceOnUse">
      <stop offset="0" stop-color="#fff33b"/>
      <stop offset=".04" stop-color="#fee62d"/>
      <stop offset=".12" stop-color="#fdd51b"/>
      <stop offset=".2" stop-color="#fdca0f"/>
      <stop offset=".28" stop-color="#fdc70c"/>
      <stop offset=".67" stop-color="#f3903f"/>
      <stop offset=".89" stop-color="#ed683c"/>
      <stop offset="1" stop-color="#e93e3a"/>
    </linearGradient>
    <linearGradient id="Orange_Yellow-2" data-name="Orange, Yellow" x1="32.94" y1="135.87" x2="109.33" y2="139.87" xlink:href="#Orange_Yellow"/>
    <linearGradient id="Orange_Yellow-3" data-name="Orange, Yellow" x1="89.57" y1="144.65" x2="177.9" y2="149.28" xlink:href="#Orange_Yellow"/>
    <linearGradient id="Orange_Yellow-4" data-name="Orange, Yellow" x1="77.24" y1="99.02" x2="94.46" y2="99.92" xlink:href="#Orange_Yellow"/>
    <linearGradient id="Orange_Yellow-5" data-name="Orange, Yellow" x1="89.73" y1="56.67" x2="180.55" y2="61.43" xlink:href="#Orange_Yellow"/>
    <linearGradient id="linear-gradient" x1="133.74" y1="29.67" x2="133.74" y2="221.62" gradientUnits="userSpaceOnUse">
      <stop offset="0" stop-color="#ff9000"/>
      <stop offset=".19" stop-color="#f66a00"/>
      <stop offset=".37" stop-color="#ef4d00"/>
      <stop offset=".48" stop-color="#ed4300"/>
      <stop offset=".56" stop-color="#d12e1a"/>
      <stop offset=".67" stop-color="#b71933"/>
      <stop offset=".77" stop-color="#a40b45"/>
      <stop offset=".88" stop-color="#980250"/>
      <stop offset="1" stop-color="#950054"/>
    </linearGradient>
  </defs>
  <g id="Layer_1-2" data-name="Layer 1">
    <g>
      <rect class="cls-1" width="534.03" height="251.29"/>
      <g>
        <g>
          <g>
            <polygon class="cls-5" points="190.26 99.47 190.26 99.47 172.99 99.47 172.99 99.47 183.97 113.03 204.37 113.03 185.45 136.4 176.83 125.72 176.9 125.63 168.27 114.96 159.62 125.64 185.54 157.61 232.62 99.47 190.26 99.47"/>
            <polygon class="cls-7" points="63.1 113.03 83.5 113.03 94.48 99.47 34.85 99.47 90.58 168.32 90.57 168.33 99.18 178.96 107.84 168.27 63.1 113.03"/>
            <polygon class="cls-8" points="125.13 146.91 107.89 125.55 133.7 93.67 150.98 114.99 159.64 104.3 133.74 72.32 90.57 125.63 116.47 157.61 125.1 168.27 142.32 147.01 159.58 168.4 133.77 200.28 116.47 178.93 107.81 189.62 133.72 221.62 176.9 168.33 142.35 125.65 125.13 146.91"/>
            <polygon class="cls-6" points="77.21 99.47 94.48 99.47 94.48 99.47 77.21 99.47"/>
            <polygon class="cls-9" points="133.74 50.99 162.01 85.9 179.27 85.9 133.74 29.67 88.2 85.9 105.47 85.9 133.74 50.99"/>
          </g>
          <g>
            <polygon class="cls-2" points="190.26 99.47 190.26 99.47 172.99 99.47 172.99 99.47 183.97 113.03 204.37 113.03 185.45 136.4 176.83 125.72 176.9 125.63 168.27 114.96 159.62 125.64 185.54 157.61 232.62 99.47 190.26 99.47"/>
            <polygon class="cls-2" points="63.1 113.03 83.5 113.03 94.48 99.47 34.85 99.47 90.58 168.32 90.57 168.33 99.18 178.96 107.84 168.27 63.1 113.03"/>
            <polygon class="cls-2" points="125.13 146.91 107.89 125.55 133.7 93.67 150.98 114.99 159.64 104.3 133.74 72.32 90.57 125.63 116.47 157.61 125.1 168.27 142.32 147.01 159.58 168.4 133.77 200.28 116.47 178.93 107.81 189.62 133.72 221.62 176.9 168.33 142.35 125.65 125.13 146.91"/>
            <polygon class="cls-2" points="77.21 99.47 94.48 99.47 94.48 99.47 77.21 99.47"/>
            <g>
              <polygon class="cls-2" points="133.74 50.99 162.01 85.9 179.27 85.9 133.74 29.67 88.2 85.9 105.47 85.9 133.74 50.99"/>
              <polygon class="cls-2" points="133.74 50.99 162.01 85.9 179.27 85.9 133.74 29.67 88.2 85.9 105.47 85.9 133.74 50.99"/>
            </g>
          </g>
        </g>
        <g>
          <g>
            <path class="cls-4" d="m295.75,152.99l-38.27-53.52h12.96l29.7,41.54,29.7-41.54h12.96l-38.27,53.52h-8.78Z"/>
            <path class="cls-4" d="m399.51,99.47c3.36,0,6.92.95,9.8,3.4,2.67,2.27,4.48,5.87,4.73,10.05h-10.52c-.08-2.02-.69-2.86-1.49-3.54-.86-.73-2.27-1.21-3.84-1.21h-37.5c-1.57,0-2.98.48-3.84,1.21-.86.73-1.5,1.64-1.5,4.02v2.72c0,2.38.64,3.29,1.5,4.02.86.73,2.27,1.21,3.84,1.21h40.44c3.36,0,6.92.95,9.8,3.4,2.89,2.45,4.76,6.46,4.76,11.06l-.04,2.72c-.07,4.6-1.87,8.61-4.76,11.06-2.89,2.45-6.45,3.4-9.8,3.4h-41.71c-3.36,0-6.92-.95-9.8-3.4-2.89-2.45-4.76-6.46-4.76-11.06l.04-1.59h10.5c0,1.06,0,2.12,0,2.12,0,2.38.64,3.29,1.5,4.02.86.73,2.27,1.21,3.84,1.21h39.08c1.57,0,2.98-.48,3.84-1.21.86-.73,1.5-1.64,1.5-4.02v-4.74c-.15-1.68-.73-2.44-1.46-3.06-.86-.73-2.27-1.21-3.84-1.21h-40.44c-3.35,0-6.92-.95-9.8-3.4-2.81-2.38-4.65-6.23-4.76-10.67h0v-2.05c0-4.6,1.87-8.61,4.76-11.06,2.89-2.45,6.45-3.4,9.8-3.4h40.13Z"/>
            <path class="cls-4" d="m483.69,99.47c3.35,0,6.92.95,9.8,3.4,2.89,2.45,4.76,6.46,4.76,11.06l-.09,3.68h-10.44v-4.21c0-2.38-.65-3.3-1.5-4.02-.86-.73-2.27-1.21-3.84-1.21h-43.29c-1.57,0-2.98.48-3.84,1.21-.86.73-1.5,1.64-1.5,4.02v25.66c0,2.38.65,3.3,1.5,4.02.86.73,2.28,1.21,3.84,1.21h43.29c1.57,0,2.98-.48,3.84-1.21.86-.73,1.5-1.64,1.5-4.02v-4.21h10.44l.09,3.68c0,4.6-1.87,8.61-4.76,11.06-2.89,2.45-6.45,3.4-9.8,3.4h-45.93c-3.36,0-6.92-.95-9.81-3.4-2.89-2.45-4.76-6.46-4.76-11.06v-24.6c0-4.6,1.87-8.61,4.76-11.06,2.89-2.45,6.45-3.4,9.81-3.4h45.93Z"/>
          </g>
          <g>
            <path class="cls-3" d="m264.42,195.7l-4.05-18.13h2.37l2.86,13.36,2.73-13.36h2.31l-4.01,18.13h-2.21Z"/>
            <path class="cls-3" d="m270.96,195.7l3.85-18.13h2.44l3.87,18.13h-2.39l-.83-4.57h-3.69l-.87,4.57h-2.37Zm3.58-6.38h3.02l-1.52-8.17-1.5,8.17Z"/>
            <path class="cls-3" d="m282.95,195.7v-18.13h2.53v16.32h4.63v1.81h-7.16Z"/>
            <path class="cls-3" d="m296.51,195.9c-1.31,0-2.32-.26-3.02-.79-.7-.52-1.18-1.26-1.43-2.2-.26-.95-.38-2.06-.38-3.32v-12.02h2.42v12.13c0,.78.05,1.48.16,2.13s.33,1.15.68,1.52.88.56,1.58.56,1.25-.19,1.59-.56.57-.88.67-1.52.16-1.35.16-2.13v-12.13h2.39v12.02c0,1.27-.13,2.38-.38,3.32-.26.95-.73,1.68-1.42,2.2-.69.52-1.7.79-3.01.79Z"/>
            <path class="cls-3" d="m303.99,195.7v-18.13h7.03v1.88h-4.5v6h3.65v1.79h-3.65v6.65h4.54v1.81h-7.07Z"/>
            <path class="cls-3" d="m318.36,199.01l.02-21.44h2.21v21.44h-2.24Z"/>
            <path class="cls-3" d="m332.97,195.9c-1.04,0-1.91-.23-2.61-.67-.69-.45-1.22-1.06-1.58-1.86-.36-.79-.57-1.71-.63-2.75l2.24-.6c.05.64.15,1.26.3,1.86.15.6.41,1.09.77,1.47.36.38.86.57,1.5.57s1.15-.18,1.49-.55c.34-.37.5-.89.5-1.58,0-.82-.19-1.48-.56-1.98-.37-.5-.84-1.01-1.41-1.51l-3.05-2.68c-.6-.52-1.03-1.09-1.32-1.71-.28-.62-.43-1.39-.43-2.3,0-1.33.38-2.36,1.14-3.09.76-.73,1.8-1.1,3.11-1.1.72,0,1.35.09,1.89.28.54.19,1,.47,1.37.86.36.39.65.87.87,1.46s.36,1.28.44,2.07l-2.15.58c-.04-.6-.13-1.14-.27-1.64s-.37-.9-.7-1.21c-.33-.31-.82-.46-1.44-.46s-1.12.17-1.47.5c-.35.34-.52.83-.52,1.49,0,.55.09,1.01.28,1.37s.49.72.91,1.1l3.07,2.68c.68.6,1.29,1.31,1.81,2.14.52.83.79,1.81.79,2.94,0,.9-.19,1.67-.56,2.32-.37.65-.88,1.15-1.54,1.49-.65.34-1.4.52-2.25.52Z"/>
            <path class="cls-3" d="m342.06,195.7v-6.4l-3.92-11.73h2.35l2.77,8.75,2.73-8.75h2.37l-3.89,11.73v6.4h-2.42Z"/>
            <path class="cls-3" d="m350.05,195.7v-18.13h1.72l5.15,12.04v-12.04h2.11v18.13h-1.61l-5.22-12.38v12.38h-2.15Z"/>
            <path class="cls-3" d="m361.87,195.7v-18.13h7.03v1.88h-4.5v6h3.65v1.79h-3.65v6.65h4.54v1.81h-7.07Z"/>
            <path class="cls-3" d="m370.98,195.7v-18.13h3.65c1.21,0,2.21.16,3,.48.79.32,1.38.83,1.76,1.54.38.71.57,1.64.57,2.79,0,.7-.08,1.34-.22,1.91-.15.58-.39,1.06-.72,1.45-.33.4-.76.68-1.3.86l2.57,9.09h-2.44l-2.37-8.51h-1.97v8.51h-2.53Zm2.53-10.32h.96c.72,0,1.3-.09,1.75-.27.45-.18.78-.49.99-.92s.31-1.03.31-1.81c0-1.06-.19-1.83-.58-2.3-.39-.47-1.16-.71-2.31-.71h-1.12v6Z"/>
            <path class="cls-3" d="m386.91,195.92c-1.13,0-2.04-.24-2.72-.73-.68-.48-1.17-1.19-1.48-2.12-.3-.92-.46-2.04-.46-3.33v-6.07c0-1.33.14-2.46.42-3.39.28-.93.77-1.64,1.48-2.13.71-.49,1.7-.74,2.97-.74,1.13,0,2.05.19,2.74.57s1.2.96,1.51,1.75c.31.79.47,1.77.47,2.97v.67h-2.37v-.56c0-.79-.05-1.43-.15-1.94-.1-.5-.32-.87-.64-1.12s-.83-.37-1.51-.37c-.75,0-1.29.17-1.62.52-.34.34-.55.81-.63,1.4s-.12,1.26-.12,2v6.72c0,.86.06,1.59.19,2.17.12.58.37,1.02.73,1.3.36.28.86.43,1.52.43s1.16-.16,1.52-.47c.36-.31.6-.78.74-1.39s.2-1.38.2-2.29v-1.25h-2.31v-1.79h4.59v8.97h-1.59l-.25-2.08c-.24.67-.61,1.22-1.12,1.66s-1.21.65-2.11.65Z"/>
            <path class="cls-3" d="m397.21,195.7v-6.4l-3.92-11.73h2.35l2.77,8.75,2.73-8.75h2.37l-3.89,11.73v6.4h-2.42Z"/>
            <path class="cls-3" d="m410.46,199.01l.02-21.44h2.21v21.44h-2.24Z"/>
            <path class="cls-3" d="m425.34,195.9c-1.28,0-2.28-.27-2.99-.81-.71-.54-1.2-1.26-1.48-2.17-.28-.91-.42-1.93-.42-3.04v-6.4c0-1.22.14-2.29.42-3.2.28-.91.77-1.61,1.48-2.12.71-.5,1.7-.75,2.99-.75,1.14,0,2.03.21,2.7.63.66.42,1.14,1.02,1.43,1.79s.44,1.71.44,2.8v1.43h-2.39v-1.27c0-.67-.04-1.27-.1-1.78-.07-.51-.25-.91-.55-1.2-.3-.28-.8-.43-1.5-.43s-1.24.15-1.57.46c-.33.3-.54.74-.64,1.3-.1.56-.15,1.21-.15,1.96v7.19c0,.91.08,1.63.23,2.16.15.53.4.91.74,1.13.34.22.81.33,1.39.33.69,0,1.18-.15,1.48-.46.3-.3.48-.73.56-1.26s.11-1.17.11-1.88v-1.35h2.39v1.35c0,1.1-.13,2.08-.4,2.92-.27.84-.73,1.5-1.39,1.97-.66.47-1.58.71-2.78.71Z"/>
            <path class="cls-3" d="m432.33,195.7v-18.13h3.65c1.21,0,2.21.16,3,.48.79.32,1.38.83,1.76,1.54.38.71.57,1.64.57,2.79,0,.7-.08,1.34-.22,1.91-.15.58-.39,1.06-.72,1.45-.33.4-.76.68-1.3.86l2.57,9.09h-2.44l-2.37-8.51h-1.97v8.51h-2.53Zm2.53-10.32h.96c.72,0,1.3-.09,1.75-.27.45-.18.78-.49.99-.92s.31-1.03.31-1.81c0-1.06-.19-1.83-.58-2.3-.39-.47-1.16-.71-2.31-.71h-1.12v6Z"/>
            <path class="cls-3" d="m443.94,195.7v-18.13h7.03v1.88h-4.5v6h3.65v1.79h-3.65v6.65h4.54v1.81h-7.07Z"/>
            <path class="cls-3" d="m452.07,195.7l3.85-18.13h2.44l3.87,18.13h-2.39l-.83-4.57h-3.69l-.87,4.57h-2.37Zm3.58-6.38h3.02l-1.52-8.17-1.5,8.17Z"/>
            <path class="cls-3" d="m465.34,195.7v-16.25h-3.06v-1.88h8.57v1.88h-2.98v16.25h-2.53Z"/>
            <path class="cls-3" d="m472.73,195.7v-18.13h2.48v18.13h-2.48Z"/>
            <path class="cls-3" d="m482.77,195.9c-1.22,0-2.2-.24-2.93-.72s-1.25-1.16-1.57-2.05c-.31-.89-.47-1.93-.47-3.12v-6.87c0-1.2.16-2.22.48-3.08s.84-1.52,1.57-1.97,1.7-.68,2.92-.68,2.19.23,2.91.69c.72.46,1.23,1.12,1.56,1.97.32.85.48,1.87.48,3.07v6.89c0,1.18-.16,2.21-.48,3.09-.32.88-.84,1.56-1.56,2.05-.71.49-1.69.73-2.91.73Zm0-1.99c.67,0,1.18-.14,1.52-.41.34-.28.57-.66.69-1.17.12-.5.18-1.08.18-1.76v-7.95c0-.67-.06-1.25-.18-1.74-.12-.48-.35-.86-.69-1.12-.34-.26-.85-.39-1.52-.39s-1.19.13-1.54.39-.58.64-.7,1.12c-.12.48-.18,1.06-.18,1.74v7.95c0,.67.06,1.26.18,1.76.12.5.35.89.7,1.17.35.28.86.41,1.54.41Z"/>
            <path class="cls-3" d="m490.21,195.7v-18.13h1.72l5.15,12.04v-12.04h2.11v18.13h-1.61l-5.22-12.38v12.38h-2.15Z"/>
          </g>
        </g>
      </g>
    </g>
  </g>
</svg>